/* XPM */
static char * C:\Users\Ronan\Desktop\PIVXimages\FUNC\share\pixmaps\bitcoin16_xpm[] = {
"16 16 198 2",
"  	c None",
". 	c #7CA730",
"+ 	c #86AF32",
"@ 	c #8FB631",
"# 	c #97BC33",
"$ 	c #9EC137",
"% 	c #A1C339",
"& 	c #6A982D",
"* 	c #73A02A",
"= 	c #80AA2D",
"- 	c #8EB530",
"; 	c #9ABE32",
"> 	c #A6C735",
", 	c #ADCC37",
"' 	c #A6C835",
") 	c #A0C339",
"! 	c #609029",
"~ 	c #6A9929",
"{ 	c #77A32B",
"] 	c #86AF2E",
"^ 	c #95BB32",
"/ 	c #A4C635",
"( 	c #B4D13A",
"_ 	c #C4DC59",
": 	c #C5DC5B",
"< 	c #B5D23E",
"[ 	c #B7D06C",
"} 	c #CBDCA0",
"| 	c #588729",
"1 	c #739E3F",
"2 	c #80A942",
"3 	c #7AA62B",
"4 	c #89B22F",
"5 	c #99BE32",
"6 	c #AACA36",
"7 	c #C0D950",
"8 	c #E2EDAE",
"9 	c #E7EFBF",
"0 	c #D8E4A9",
"a 	c #DAE4B1",
"b 	c #CDDBA5",
"c 	c #A0BF63",
"d 	c #5A892A",
"e 	c #8DB160",
"f 	c #7FA844",
"g 	c #79A62B",
"h 	c #89B12F",
"i 	c #99BD32",
"j 	c #AECB52",
"k 	c #C9D88A",
"l 	c #D9DFBF",
"m 	c #DBE0C3",
"n 	c #D1D8AF",
"o 	c #C6D495",
"p 	c #C3D09F",
"q 	c #B4C68E",
"r 	c #4E7D28",
"s 	c #568627",
"t 	c #6F9B3B",
"u 	c #6B992A",
"v 	c #76A22B",
"w 	c #88AF39",
"x 	c #A6BB75",
"y 	c #B7C290",
"z 	c #BAC889",
"A 	c #C0CC8D",
"B 	c #BEC69A",
"C 	c #BBCB83",
"D 	c #B6C48B",
"E 	c #A7C070",
"F 	c #93B457",
"G 	c #7DA733",
"H 	c #52812E",
"I 	c #4E7F20",
"J 	c #598A23",
"K 	c #649427",
"L 	c #79A041",
"M 	c #95A873",
"N 	c #9CB071",
"O 	c #A0AE7A",
"P 	c #A5BD5E",
"Q 	c #A6B37C",
"R 	c #AABC71",
"S 	c #A4C14D",
"T 	c #98BC35",
"U 	c #8CB42F",
"V 	c #7FA92D",
"W 	c #74A12D",
"X 	c #51812D",
"Y 	c #4F8025",
"Z 	c #719050",
"` 	c #7E8C67",
" .	c #829265",
"..	c #849465",
"+.	c #8DAB51",
"@.	c #90A362",
"#.	c #98B942",
"$.	c #98BC34",
"%.	c #93B931",
"&.	c #8BB32F",
"*.	c #81AB2D",
"=.	c #76A32A",
"-.	c #6C9A29",
";.	c #4D7C2B",
">.	c #588636",
",.	c #5E7E43",
"'.	c #647651",
").	c #6D8352",
"!.	c #697753",
"~.	c #718353",
"{.	c #7D9F42",
"].	c #84AD30",
"^.	c #87B02E",
"/.	c #84AD2E",
"(.	c #7EA92C",
"_.	c #76A22A",
":.	c #6C9B28",
"<.	c #649328",
"[.	c #4D7930",
"}.	c #567045",
"|.	c #576A47",
"1.	c #58733E",
"2.	c #566B3F",
"3.	c #5F7D3E",
"4.	c #6A9432",
"5.	c #709E29",
"6.	c #75A22A",
"7.	c #78A42B",
"8.	c #6A9928",
"9.	c #629226",
"0.	c #5D8C28",
"a.	c #4C6539",
"b.	c #425934",
"c.	c #587B3D",
"d.	c #465838",
"e.	c #496033",
"f.	c #588924",
"g.	c #5E8E25",
"h.	c #639326",
"i.	c #679627",
"j.	c #699928",
"k.	c #689727",
"l.	c #649326",
"m.	c #5E8F25",
"n.	c #588923",
"o.	c #3C5627",
"p.	c #4A702F",
"q.	c #588437",
"r.	c #638F3E",
"s.	c #64923B",
"t.	c #5D8C2F",
"u.	c #598925",
"v.	c #5B8B24",
"w.	c #5D8D25",
"x.	c #5B8C24",
"y.	c #548522",
"z.	c #518222",
"A.	c #57832D",
"B.	c #415F27",
"C.	c #4E7E2D",
"D.	c #568633",
"E.	c #5E8D3A",
"F.	c #65933E",
"G.	c #67953E",
"H.	c #639138",
"I.	c #5E8D31",
"J.	c #5A8A2C",
"K.	c #578729",
"L.	c #558628",
"M.	c #528327",
"N.	c #52812C",
"O.	c #598B29",
"P.	c #518326",
"Q.	c #4C7D2A",
"R.	c #4F7F2E",
"S.	c #558532",
"T.	c #588935",
"U.	c #5A8A35",
"V.	c #5A8A34",
"W.	c #588831",
"X.	c #55852D",
"Y.	c #4E7F28",
"Z.	c #4C7B28",
"`.	c #5B8C2A",
" +	c #568825",
".+	c #4F8126",
"++	c #4B7C27",
"@+	c #4B7B28",
"#+	c #4B7B29",
"$+	c #497926",
"%+	c #467623",
"&+	c #477526",
"*+	c #5A8B29",
"=+	c #588928",
"-+	c #538525",
";+	c #508124",
">+	c #4D7D26",
",+	c #4A7A26",
"          . + @ # $ %           ",
"      & * = - ; > , , ' )       ",
"    ! ~ { ] ^ / ( _ : < [ }     ",
"  | 1 2 3 4 5 6 7 8 9 0 a b c   ",
"  d e f g h i j k l m n o p q   ",
"r s t u v w x y z A B C D E F G ",
"H I J K L M N O P Q R S T U V W ",
"X Y s Z `  ...+.@.#.$.%.&.*.=.-.",
";.>.,.'.).!.~.{.].^.^./.(._.:.<.",
"[.}.|.1.2.3.4.5.6.7.7.6.5.8.9.0.",
"a.b.c.d.e.f.g.h.i.j.8.k.l.m.n.s ",
"  o.p.q.r.s.t.u.v.w.w.x.n.y.z.  ",
"  A.B.C.D.E.F.G.H.I.J.K.L.M.N.  ",
"    O.P.Q.R.S.T.U.V.W.X.Y.Z.    ",
"      `. +.+++@+#+@+$+%+&+      ",
"          *+=+-+;+>+,+          "};
