/* XPM */
static char * C:\Users\Ronan\Desktop\PIVXimages\FUNC\share\pixmaps\bitcoin32_xpm[] = {
"32 32 665 2",
"  	c None",
". 	c #84AC37",
"+ 	c #88B037",
"@ 	c #8BB234",
"# 	c #8EB631",
"$ 	c #92B832",
"% 	c #96BB36",
"& 	c #9BBE3A",
"* 	c #9DC03C",
"= 	c #75A131",
"- 	c #78A42D",
"; 	c #7EA82C",
"> 	c #83AD2D",
", 	c #89B22F",
"' 	c #8FB630",
") 	c #94BA31",
"! 	c #99BD32",
"~ 	c #9CC033",
"{ 	c #9FC233",
"] 	c #A0C334",
"^ 	c #A1C434",
"/ 	c #A1C337",
"( 	c #A1C33D",
"_ 	c #6D9A31",
": 	c #6F9C2B",
"< 	c #74A12A",
"[ 	c #7BA62B",
"} 	c #82AC2D",
"| 	c #88B12E",
"1 	c #8FB530",
"2 	c #9ABE32",
"3 	c #A0C233",
"4 	c #A4C634",
"5 	c #A7C835",
"6 	c #A9C936",
"7 	c #A9CA36",
"8 	c #A8C835",
"9 	c #A5C635",
"0 	c #A1C436",
"a 	c #A1C33E",
"b 	c #67952C",
"c 	c #6A9828",
"d 	c #709E29",
"e 	c #77A42B",
"f 	c #7EA92C",
"g 	c #85AE2E",
"h 	c #8DB42F",
"i 	c #94B931",
"j 	c #A0C333",
"k 	c #A6C735",
"l 	c #ACCB36",
"m 	c #B0CE37",
"n 	c #B2D038",
"o 	c #ACCC36",
"p 	c #9EC139",
"q 	c #619129",
"r 	c #659527",
"s 	c #6C9A28",
"t 	c #73A02A",
"u 	c #7AA52B",
"v 	c #81AB2D",
"w 	c #90B730",
"x 	c #97BC32",
"y 	c #ADCC36",
"z 	c #B3D137",
"A 	c #B9D53E",
"B 	c #BED846",
"C 	c #BED847",
"D 	c #BAD63F",
"E 	c #B3D138",
"F 	c #ADCD36",
"G 	c #A4C455",
"H 	c #5C8C28",
"I 	c #619126",
"J 	c #6A982A",
"K 	c #6E9C2A",
"L 	c #7CA72C",
"M 	c #83AD2E",
"N 	c #8BB32F",
"O 	c #93B931",
"P 	c #9BBF33",
"Q 	c #A2C434",
"R 	c #AACA36",
"S 	c #B2D037",
"T 	c #BCD642",
"U 	c #C8DE5E",
"V 	c #D0E375",
"W 	c #D1E476",
"X 	c #CADF63",
"Y 	c #BED746",
"Z 	c #B5D242",
"` 	c #BFD677",
" .	c #CFDF9F",
"..	c #DCE8B8",
"+.	c #DBE7B9",
"@.	c #588829",
"#.	c #5E8E27",
"$.	c #719D38",
"%.	c #7CA63F",
"&.	c #78A333",
"*.	c #75A22B",
"=.	c #7DA82C",
"-.	c #95BA31",
";.	c #9DC033",
">.	c #AECD37",
",.	c #B6D33A",
"'.	c #C5DD58",
").	c #D6E785",
"!.	c #E3EEAA",
"~.	c #E4EFAD",
"{.	c #DDEAA1",
"].	c #D9E6A3",
"^.	c #CCDF88",
"/.	c #DFE9B8",
"(.	c #DEE8BB",
"_.	c #D8E4B4",
":.	c #C7D89C",
"<.	c #9EBE5A",
"[.	c #57852C",
"}.	c #578724",
"|.	c #6F9A3B",
"1.	c #89AF58",
"2.	c #8DB256",
"3.	c #7DA73A",
"4.	c #77A32A",
"5.	c #7DA92C",
"6.	c #85AF2E",
"7.	c #8DB530",
"8.	c #95BB32",
"9.	c #9EC133",
"0.	c #AFCE37",
"a.	c #CAE065",
"b.	c #DFEBA3",
"c.	c #EEF3D7",
"d.	c #F2F7D8",
"e.	c #E8EDCE",
"f.	c #E2E7C7",
"g.	c #D7E2AA",
"h.	c #D1DE9C",
"i.	c #D8E1B4",
"j.	c #CDDAA4",
"k.	c #C6D69D",
"l.	c #ADC67A",
"m.	c #8CB33A",
"n.	c #518223",
"o.	c #5E8D2C",
"p.	c #81A953",
"q.	c #9ABB6F",
"r.	c #90B45A",
"s.	c #79A436",
"t.	c #76A32A",
"u.	c #95BB31",
"v.	c #9DC133",
"w.	c #AFCD3B",
"x.	c #BFD667",
"y.	c #CDDF78",
"z.	c #DDE3C2",
"A.	c #E1E4D5",
"B.	c #E5E9D3",
"C.	c #E1E7C1",
"D.	c #D9DFBC",
"E.	c #D4DCAF",
"F.	c #C7D78E",
"G.	c #CDD8A3",
"H.	c #CDD7AB",
"I.	c #BCCE8F",
"J.	c #ADC57B",
"K.	c #A6C077",
"L.	c #507F29",
"M.	c #508121",
"N.	c #659335",
"O.	c #86AC59",
"P.	c #92B564",
"Q.	c #81AA48",
"R.	c #719E2C",
"S.	c #75A22A",
"T.	c #7CA82C",
"U.	c #84AD2E",
"V.	c #8CB32F",
"W.	c #9CBF34",
"X.	c #AAC854",
"Y.	c #BAD073",
"Z.	c #CAD3A2",
"`.	c #CDD79D",
" +	c #D2DDA1",
".+	c #D4D8BE",
"++	c #D4D8BF",
"@+	c #D2D7B7",
"#+	c #CED4AC",
"$+	c #CAD2A4",
"%+	c #C7D19F",
"&+	c #BBCF81",
"*+	c #C3CEA1",
"=+	c #C0CC9F",
"-+	c #BFCAA0",
";+	c #BCC99F",
">+	c #A2BC76",
",+	c #4C7C23",
"'+	c #4F8021",
")+	c #639132",
"!+	c #78A348",
"~+	c #7AA445",
"{+	c #6E9B30",
"]+	c #6D9B28",
"^+	c #74A02A",
"/+	c #7BA62C",
"(+	c #8AB22F",
"_+	c #95B940",
":+	c #ACC276",
"<+	c #BBC696",
"[+	c #BDCA8F",
"}+	c #C0CC90",
"|+	c #C1C99B",
"1+	c #C6D38A",
"2+	c #C7D09E",
"3+	c #C5CBA6",
"4+	c #C4CBA1",
"5+	c #C2CA9B",
"6+	c #C1CD92",
"7+	c #BEC69A",
"8+	c #B7C786",
"9+	c #B4C685",
"0+	c #B6C493",
"a+	c #AABF7F",
"b+	c #96B55E",
"c+	c #80A938",
"d+	c #4A7B20",
"e+	c #4D7F20",
"f+	c #578826",
"g+	c #63922F",
"h+	c #63922A",
"i+	c #649426",
"j+	c #6B9928",
"k+	c #719F29",
"l+	c #78A42B",
"m+	c #82AB36",
"n+	c #90B34C",
"o+	c #A7BA7E",
"p+	c #AEB88E",
"q+	c #B0BA8F",
"r+	c #B3BF8B",
"s+	c #B1CA65",
"t+	c #B6C18D",
"u+	c #B7C08F",
"v+	c #BCCD7A",
"w+	c #B8C091",
"x+	c #B8C08F",
"y+	c #B8CB76",
"z+	c #B0CB5C",
"A+	c #B4C288",
"B+	c #AFC181",
"C+	c #9CBD47",
"D+	c #93B841",
"E+	c #88B030",
"F+	c #80AB2D",
"G+	c #578536",
"H+	c #4D7E25",
"I+	c #4C7D20",
"J+	c #518221",
"K+	c #578823",
"L+	c #5C8D24",
"M+	c #629226",
"N+	c #689727",
"O+	c #6F9D29",
"P+	c #77A32E",
"Q+	c #96AD70",
"R+	c #9FAD80",
"S+	c #A2B579",
"T+	c #A4B182",
"U+	c #A5B084",
"V+	c #A7B382",
"W+	c #A7C352",
"X+	c #ACC365",
"Y+	c #AAB385",
"Z+	c #AEBB7E",
"`+	c #B1C178",
" @	c #AAB386",
".@	c #ADBF72",
"+@	c #A3C536",
"@@	c #9FC13B",
"#@	c #99BC36",
"$@	c #91B831",
"%@	c #84AE2E",
"&@	c #548335",
"*@	c #51812A",
"=@	c #4B7C1F",
"-@	c #4F8120",
";@	c #558622",
">@	c #5A8B24",
",@	c #609025",
"'@	c #67962B",
")@	c #7D9E52",
"!@	c #80A24F",
"~@	c #8CA662",
"{@	c #939F79",
"]@	c #97A773",
"^@	c #93B44A",
"/@	c #9AB266",
"(@	c #9AA47A",
"_@	c #9FAD73",
":@	c #A2C145",
"<@	c #A3B470",
"[@	c #9EA87B",
"}@	c #A8BE64",
"|@	c #A6BE5E",
"1@	c #A2C144",
"2@	c #92B831",
"3@	c #8CB42F",
"4@	c #86AF2E",
"5@	c #80AA2D",
"6@	c #719E30",
"7@	c #507F2F",
"8@	c #54852F",
"9@	c #4D7E24",
"0@	c #4E7F20",
"a@	c #538421",
"b@	c #588923",
"c@	c #5F8E2A",
"d@	c #769752",
"e@	c #82906D",
"f@	c #84926D",
"g@	c #879C64",
"h@	c #8C9E6B",
"i@	c #88946E",
"j@	c #8EA65F",
"k@	c #8EB33C",
"l@	c #92A26B",
"m@	c #8E986F",
"n@	c #99AF5F",
"o@	c #9CBC45",
"p@	c #9EB858",
"q@	c #9DBF3A",
"r@	c #98BD32",
"s@	c #91B730",
"t@	c #87AF2E",
"u@	c #7BA72C",
"v@	c #76A22A",
"w@	c #709D29",
"x@	c #6C992C",
"y@	c #4C7C29",
"z@	c #53832E",
"A@	c #55852E",
"B@	c #508221",
"C@	c #5E8935",
"D@	c #738A5B",
"E@	c #78915C",
"F@	c #798B61",
"G@	c #778462",
"H@	c #798563",
"I@	c #7B8863",
"J@	c #7F8C64",
"K@	c #89A84A",
"L@	c #8CAD48",
"M@	c #889764",
"N@	c #91AB55",
"O@	c #93BA31",
"P@	c #93B831",
"Q@	c #8DB52F",
"R@	c #719E29",
"S@	c #6B9A28",
"T@	c #679629",
"U@	c #4A7A29",
"V@	c #50812D",
"W@	c #588833",
"X@	c #52832A",
"Y@	c #55822E",
"Z@	c #638645",
"`@	c #677757",
" #	c #697957",
".#	c #748D55",
"+#	c #6E7D58",
"@#	c #6C7957",
"##	c #6E7B58",
"$#	c #6F7B58",
"%#	c #707C58",
"&#	c #7B8D58",
"*#	c #83AC32",
"=#	c #88AE37",
"-#	c #89B130",
";#	c #8BB42F",
">#	c #8BB22F",
",#	c #89B12F",
"'#	c #7FA92C",
")#	c #6C9B28",
"!#	c #679627",
"~#	c #639328",
"{#	c #4A782B",
"]#	c #4E7E2B",
"^#	c #558531",
"/#	c #628845",
"(#	c #5E714F",
"_#	c #607D46",
":#	c #637D49",
"<#	c #5C6B4C",
"[#	c #64764E",
"}#	c #6D894B",
"|#	c #62704D",
"1#	c #69784F",
"2#	c #748E4D",
"3#	c #71864F",
"4#	c #799847",
"5#	c #7CA72D",
"6#	c #7EA92D",
"7#	c #83AC2E",
"8#	c #7FAA2D",
"9#	c #78A52B",
"0#	c #75A12A",
"a#	c #639226",
"b#	c #61902B",
"c#	c #4C7930",
"d#	c #4B7B2A",
"e#	c #597E40",
"f#	c #65814F",
"g#	c #59694C",
"h#	c #526244",
"i#	c #5D7E3E",
"j#	c #5B7244",
"k#	c #526142",
"l#	c #638141",
"m#	c #637C44",
"n#	c #576444",
"o#	c #6C8A42",
"p#	c #6F9C2C",
"q#	c #729F2A",
"r#	c #79A52B",
"s#	c #729F29",
"t#	c #5E8E25",
"u#	c #5F8E2D",
"v#	c #4F7C30",
"w#	c #4F7535",
"x#	c #4A5B40",
"y#	c #4F6043",
"z#	c #627F4A",
"A#	c #4D5B42",
"B#	c #4C5F3D",
"C#	c #5B7B3A",
"D#	c #4B5B3A",
"E#	c #556A3D",
"F#	c #608C30",
"G#	c #63843C",
"H#	c #66932D",
"I#	c #6E9C29",
"J#	c #74A22A",
"K#	c #72A02A",
"L#	c #699827",
"M#	c #659526",
"N#	c #619125",
"O#	c #5E8E24",
"P#	c #5A8A23",
"Q#	c #5C8B2D",
"R#	c #455A37",
"S#	c #3B4A33",
"T#	c #4F6B3D",
"U#	c #5C873C",
"V#	c #597742",
"W#	c #435039",
"X#	c #455436",
"Y#	c #3E4D30",
"Z#	c #4D6136",
"`#	c #598926",
" $	c #5C8C24",
".$	c #5F8F25",
"+$	c #679727",
"@$	c #6D9C29",
"#$	c #6A9928",
"$$	c #639326",
"%$	c #5F9025",
"&$	c #598A23",
"*$	c #558623",
"=$	c #485D35",
"-$	c #33422B",
";$	c #486435",
">$	c #4E653B",
",$	c #5C873B",
"'$	c #536E3D",
")$	c #3C4A32",
"!$	c #404E32",
"~$	c #567A34",
"{$	c #548523",
"]$	c #5A8B23",
"^$	c #5D8D24",
"/$	c #659426",
"($	c #669527",
"_$	c #669627",
":$	c #629126",
"<$	c #5D8E24",
"[$	c #548522",
"}$	c #538325",
"|$	c #587F37",
"1$	c #3B502A",
"2$	c #2B3A24",
"3$	c #4A6C33",
"4$	c #538332",
"5$	c #5A8838",
"6$	c #5A7D3C",
"7$	c #618640",
"8$	c #699641",
"9$	c #63923A",
"0$	c #5A892C",
"a$	c #598A24",
"b$	c #5B8C24",
"c$	c #5D8D25",
"d$	c #5E8F25",
"e$	c #5A8A24",
"f$	c #508120",
"g$	c #53822A",
"h$	c #527B2D",
"i$	c #314322",
"j$	c #394F28",
"k$	c #4E7B30",
"l$	c #538331",
"m$	c #588836",
"n$	c #5E8D39",
"o$	c #63923D",
"p$	c #689641",
"q$	c #6B9843",
"r$	c #67953E",
"s$	c #608E33",
"t$	c #588827",
"u$	c #568723",
"v$	c #528421",
"w$	c #508126",
"x$	c #5C8B31",
"y$	c #4F752A",
"z$	c #28371B",
"A$	c #3E592A",
"B$	c #4E7E2E",
"C$	c #528331",
"D$	c #578734",
"E$	c #5C8B38",
"F$	c #608F3B",
"G$	c #64923E",
"H$	c #689540",
"I$	c #6B9842",
"J$	c #6B9841",
"K$	c #66943B",
"L$	c #608F34",
"M$	c #5A8A2C",
"N$	c #568726",
"O$	c #538422",
"P$	c #528321",
"Q$	c #518322",
"R$	c #518222",
"S$	c #518224",
"T$	c #528326",
"U$	c #518227",
"V$	c #558331",
"W$	c #5A8B2B",
"X$	c #4D7229",
"Y$	c #496E2A",
"Z$	c #4B7B29",
"`$	c #4C7D2C",
" %	c #50812F",
".%	c #548432",
"+%	c #588835",
"@%	c #5F8E3A",
"#%	c #62913C",
"$%	c #64933D",
"%%	c #66943E",
"&%	c #68953F",
"*%	c #68953E",
"=%	c #67953C",
"-%	c #639239",
";%	c #608F35",
">%	c #5E8D32",
",%	c #5C8B30",
"'%	c #5A8A2F",
")%	c #59892F",
"!%	c #57882D",
"~%	c #54852B",
"{%	c #508127",
"]%	c #507F2C",
"^%	c #5A8C29",
"/%	c #558726",
"(%	c #4F8126",
"_%	c #4B7C28",
":%	c #4D7E2D",
"<%	c #51812F",
"[%	c #5A8A36",
"}%	c #5C8C37",
"|%	c #5D8D38",
"1%	c #5E8E39",
"2%	c #5F8E38",
"3%	c #5E8E36",
"4%	c #5D8D35",
"5%	c #5C8B33",
"6%	c #5A8A31",
"7%	c #57872F",
"8%	c #54842C",
"9%	c #508129",
"0%	c #4D7E26",
"a%	c #4C7B28",
"b%	c #5B8D28",
"c%	c #568925",
"d%	c #528426",
"e%	c #4E7F27",
"f%	c #4A7B28",
"g%	c #4D7D2C",
"h%	c #4F802E",
"i%	c #52822F",
"j%	c #538431",
"k%	c #558532",
"l%	c #568632",
"m%	c #568631",
"n%	c #568630",
"o%	c #55852F",
"p%	c #53842D",
"q%	c #52822B",
"r%	c #4F8029",
"s%	c #4C7D27",
"t%	c #497A24",
"u%	c #497826",
"v%	c #5B8D2A",
"w%	c #588B25",
"x%	c #558725",
"y%	c #508226",
"z%	c #4A7B27",
"A%	c #497A28",
"B%	c #4A7B2A",
"C%	c #4C7C2A",
"D%	c #4D7D2B",
"E%	c #4E7E2C",
"F%	c #4E7F2C",
"G%	c #4E7E2A",
"H%	c #4D7D29",
"I%	c #4A7A26",
"J%	c #487824",
"K%	c #457522",
"L%	c #477526",
"M%	c #5D8D2E",
"N%	c #5A8C26",
"O%	c #578A24",
"P%	c #548725",
"Q%	c #518325",
"R%	c #4E7F25",
"S%	c #4B7C25",
"T%	c #497925",
"U%	c #487826",
"V%	c #477826",
"W%	c #477725",
"X%	c #477724",
"Y%	c #467623",
"Z%	c #447422",
"`%	c #437321",
" &	c #437222",
".&	c #47732A",
"+&	c #5C8D2C",
"@&	c #5A8C27",
"#&	c #568824",
"$&	c #538524",
"%&	c #508224",
"&&	c #4E7F24",
"*&	c #4C7D23",
"=&	c #4A7B22",
"-&	c #497922",
";&	c #477821",
">&	c #477723",
",&	c #4A7729",
"'&	c #5D8D2D",
")&	c #5B8C2D",
"!&	c #598A28",
"~&	c #558823",
"{&	c #548623",
"]&	c #548527",
"^&	c #53822C",
"                        . + @ # $ % & *                         ",
"                  = - ; > , ' ) ! ~ { ] ^ / (                   ",
"              _ : < [ } | 1 ) 2 3 4 5 6 7 8 9 0 a               ",
"            b c d e f g h i 2 j k l m n n m o 5 ^ p             ",
"          q r s t u v | w x { k y z A B C D E F 5 / G           ",
"        H I J K < L M N O P Q R S T U V W X Y Z `  ...+.        ",
"      @.#.$.%.&.*.=.g h -.;.9 >.,.'.).!.~.{.].^./.(._.:.<.      ",
"    [.}.|.1.2.3.4.5.6.7.8.9.k 0.A a.b.c.d.e.f.g.h.i.j.k.l.m.    ",
"    n.o.p.q.r.s.t.5.g 7.u.v.k w.x.y.z.A.B.C.D.E.F.G.H.I.J.K.    ",
"  L.M.N.O.P.Q.R.S.T.U.V.i W.X.Y.Z.`. +.+++@+#+$+%+&+*+=+-+;+>+  ",
"  ,+'+)+!+~+{+]+^+/+} (+_+:+<+[+}+|+1+2+3+4+5+6+7+8+9+0+a+b+c+  ",
"  d+e+f+g+h+i+j+k+l+m+n+o+p+q+r+s+t+u+v+w+x+y+z+A+B+C+D+E+F+u   ",
"G+H+I+J+K+L+M+N+O+P+Q+R+S+T+U+V+W+X+Y+Z+`+ @.@+@@@#@$@N %@=.t.= ",
"&@*@=@-@;@>@,@'@)@!@~@{@]@^@/@(@_@:@<@[@}@|@1@~ x 2@3@4@5@u t 6@",
"7@8@9@0@a@b@c@d@e@f@g@h@i@j@k@l@m@n@o@p@q@P r@-.s@3@t@v u@v@w@x@",
"y@z@A@I+B@C@D@E@F@G@H@I@I@J@K@L@M@N@2@O O@P@w Q@(+4@v L t.R@S@T@",
"U@V@W@X@Y@Z@`@ #.#+#@###$#%#&#*#=#-#(+N ;#>#,#4@> '#/+t.k+)#!#~#",
"{#]#^#/#(#_#:#<#[#}#|#1#2#3#4#5#6#v 7#> > 7#v 8#L 9#0#R@s !#a#b#",
"c#d#e#f#g#h#i#j#k#l#m#n#o#p#q#0#e r#/+L L u@u l+S.s#O+j+!#a#t#u#",
"v#w#x#y#z#A#B#C#D#E#F#G#H#N+S@I#d q#< J#J#< K#R@I#s L#M#N#O#P#Q#",
"  R#S#T#U#V#W#X#Y#Z#`# $.$M+r +$c S@)#@$@$]+s #$N+M#$$%$L+&$*$  ",
"  =$-$;$>$,$'$)$!$~${$K+]$^$.$I $$/$($_$_$($/$$$:$%$<$>@K+[$}$  ",
"  |$1$2$3$4$5$6$7$8$9$0$*$K+a$b$c$d$%$,@,@%$d$<$b$e$K+;@a@f$g$  ",
"    h$i$j$k$l$m$n$o$p$q$r$s$t$u$K+b@a$e$e$a$b@K+u$[$v$B@'+w$    ",
"    x$y$z$A$B$C$D$E$F$G$H$I$J$K$L$M$N$*$[$[$O$P$Q$R$S$T$U$V$    ",
"      W$X$Y$Z$`$ %.%+%E$@%#%$%%%&%*%=%-%;%>%,%'%)%!%~%{%]%      ",
"        ^%/%(%_%d#:%<%.%D$[%}%|%1%2%2%3%4%5%6%7%8%9%0%a%        ",
"          b%c%d%e%f%d#g%h%i%j%k%l%l%m%n%o%p%q%r%s%t%u%          ",
"            v%w%x%y%0%z%A%B%C%D%E%F%]#G%H%_%I%J%K%L%            ",
"              M%N%O%P%Q%R%S%T%U%V%U%W%X%Y%Z%`% &.&              ",
"                  +&@&O%#&$&%&&&*&=&-&;&;&>&,&                  ",
"                        '&)&!&~&{&]&8%^&                        "};
